<svg id="Capa_1" data-name="Capa 1" xmlns="http://www.w3.org/2000/svg" viewBox="0 0 23 28.04"><defs><style>.cls-1{fill:#fff;}</style></defs><g id="make_up_brush" data-name="make up brush"><path class="cls-1" d="M26.63,2.21a1,1,0,0,1,.37.91l-1,7.94-1,16A3,3,0,0,1,19,27a1,1,0,0,1,2,0,1,1,0,0,0,2,0l.94-15H20.06l.13,2H22a1,1,0,0,1,0,2H20.31l.49,7.94A1,1,0,0,1,19.87,25h0a1,1,0,0,1-1.06-.94L18,11.13,17,6.2a1,1,0,0,1,.63-1.14l8-3A1,1,0,0,1,26.63,2.21ZM24.12,10l.68-5.48L19.15,6.64,19.82,10Z" transform="translate(-4.01 -1.99)"/><path class="cls-1" d="M15.74,4.32a1,1,0,0,1,.26,1l-2,5.87-.56,8.87a1,1,0,0,1-1,.94h-.06a1,1,0,0,1-.94-1.06L11.69,16H10a1,1,0,0,1,0-2h1.81l.13-2H8.06L9,26.94V27a1,1,0,0,0,2,0l.25-4.06a1,1,0,1,1,2,.12l-.25,4A3,3,0,0,1,7,27l-1-15.85-2-5.87a1,1,0,0,1,.26-1,8.25,8.25,0,0,1,11.43,0ZM12.28,10l1.56-4.68A6.29,6.29,0,0,0,10,4,6.44,6.44,0,0,0,6.16,5.32L7.72,10Z" transform="translate(-4.01 -1.99)"/></g></svg>